{"accessors":[{"bufferView":0,"byteOffset":0,"componentType":5126,"count":24,"max":[0.5,0.5,0.5],"min":[-0.5,-0.5,-0.5],"normalized":false,"type":"VEC3"},{"bufferView":1,"byteOffset":0,"componentType":5126,"count":24,"max":[1,0,1,1],"min":[-1,-0.000015,-1,1],"normalized":false,"type":"VEC4"},{"bufferView":2,"byteOffset":0,"componentType":5126,"count":24,"max":[1,1,1],"min":[-1,-1,-1],"normalized":false,"type":"VEC3"},{"bufferView":3,"byteOffset":0,"componentType":5126,"count":24,"max":[1,1],"min":[0,0],"normalized":false,"type":"VEC2"},{"bufferView":4,"byteOffset":0,"componentType":5125,"count":36,"max":[23],"min":[0],"normalized":false,"type":"SCALAR"},{"bufferView":5,"byteOffset":0,"componentType":5126,"count":24,"max":[0.5,0.5,0.5],"min":[-0.5,-0.5,-0.5],"normalized":false,"type":"VEC3"},{"bufferView":6,"byteOffset":0,"componentType":5126,"count":24,"max":[1,0,1,1],"min":[-1,-0.000015,-1,1],"normalized":false,"type":"VEC4"},{"bufferView":7,"byteOffset":0,"componentType":5126,"count":24,"max":[1,1,1],"min":[-1,-1,-1],"normalized":false,"type":"VEC3"},{"bufferView":8,"byteOffset":0,"componentType":5126,"count":24,"max":[1,1],"min":[0,0],"normalized":false,"type":"VEC2"},{"bufferView":9,"byteOffset":0,"componentType":5125,"count":36,"max":[23],"min":[0],"normalized":false,"type":"SCALAR"},{"bufferView":10,"byteOffset":0,"componentType":5126,"count":24,"max":[0.5,0.5,0.5],"min":[-0.5,-0.5,-0.5],"normalized":false,"type":"VEC3"},{"bufferView":11,"byteOffset":0,"componentType":5126,"count":24,"max":[1,0,1,1],"min":[-1,-0.000015,-1,1],"normalized":false,"type":"VEC4"},{"bufferView":12,"byteOffset":0,"componentType":5126,"count":24,"max":[1,1,1],"min":[-1,-1,-1],"normalized":false,"type":"VEC3"},{"bufferView":13,"byteOffset":0,"componentType":5126,"count":24,"max":[1,1],"min":[0,0],"normalized":false,"type":"VEC2"},{"bufferView":14,"byteOffset":0,"componentType":5125,"count":36,"max":[23],"min":[0],"normalized":false,"type":"SCALAR"},{"bufferView":15,"byteOffset":0,"componentType":5126,"count":24,"max":[0.5,0.5,0.5],"min":[-0.5,-0.5,-0.5],"normalized":false,"type":"VEC3"},{"bufferView":16,"byteOffset":0,"componentType":5126,"count":24,"max":[1,0,1,1],"min":[-1,-0.000015,-1,1],"normalized":false,"type":"VEC4"},{"bufferView":17,"byteOffset":0,"componentType":5126,"count":24,"max":[1,1,1],"min":[-1,-1,-1],"normalized":false,"type":"VEC3"},{"bufferView":18,"byteOffset":0,"componentType":5126,"count":24,"max":[1,1],"min":[0,0],"normalized":false,"type":"VEC2"},{"bufferView":19,"byteOffset":0,"componentType":5125,"count":36,"max":[23],"min":[0],"normalized":false,"type":"SCALAR"},{"bufferView":20,"byteOffset":0,"componentType":5126,"count":24,"max":[0.5,0.5,0.5],"min":[-0.5,-0.5,-0.5],"normalized":false,"type":"VEC3"},{"bufferView":21,"byteOffset":0,"componentType":5126,"count":24,"max":[1,0,1,1],"min":[-1,-0.000015,-1,1],"normalized":false,"type":"VEC4"},{"bufferView":22,"byteOffset":0,"componentType":5126,"count":24,"max":[1,1,1],"min":[-1,-1,-1],"normalized":false,"type":"VEC3"},{"bufferView":23,"byteOffset":0,"componentType":5126,"count":24,"max":[1,1],"min":[0,0],"normalized":false,"type":"VEC2"},{"bufferView":24,"byteOffset":0,"componentType":5125,"count":36,"max":[23],"min":[0],"normalized":false,"type":"SCALAR"},{"bufferView":25,"byteOffset":0,"componentType":5126,"count":24,"max":[0.5,0.5,0.5],"min":[-0.5,-0.5,-0.5],"normalized":false,"type":"VEC3"},{"bufferView":26,"byteOffset":0,"componentType":5126,"count":24,"max":[1,0,1,1],"min":[-1,-0.000015,-1,1],"normalized":false,"type":"VEC4"},{"bufferView":27,"byteOffset":0,"componentType":5126,"count":24,"max":[1,1,1],"min":[-1,-1,-1],"normalized":false,"type":"VEC3"},{"bufferView":28,"byteOffset":0,"componentType":5126,"count":24,"max":[1,1],"min":[0,0],"normalized":false,"type":"VEC2"},{"bufferView":29,"byteOffset":0,"componentType":5125,"count":36,"max":[23],"min":[0],"normalized":false,"type":"SCALAR"},{"bufferView":30,"byteOffset":0,"componentType":5126,"count":24,"max":[0.5,0.5,0.5],"min":[-0.5,-0.5,-0.5],"normalized":false,"type":"VEC3"},{"bufferView":31,"byteOffset":0,"componentType":5126,"count":24,"max":[1,0,1,1],"min":[-1,-0.000015,-1,1],"normalized":false,"type":"VEC4"},{"bufferView":32,"byteOffset":0,"componentType":5126,"count":24,"max":[1,1,1],"min":[-1,-1,-1],"normalized":false,"type":"VEC3"},{"bufferView":33,"byteOffset":0,"componentType":5126,"count":24,"max":[1,1],"min":[0,0],"normalized":false,"type":"VEC2"},{"bufferView":34,"byteOffset":0,"componentType":5125,"count":36,"max":[23],"min":[0],"normalized":false,"type":"SCALAR"}],"asset":{"generator":"Godot Engine v4.2.1.stable.official@b09f793f564a6c95dc76acc654b390e68441bd01","version":"2.0"},"bufferViews":[{"buffer":0,"byteLength":288,"byteOffset":0},{"buffer":0,"byteLength":384,"byteOffset":288},{"buffer":0,"byteLength":288,"byteOffset":672},{"buffer":0,"byteLength":192,"byteOffset":960},{"buffer":0,"byteLength":144,"byteOffset":1152},{"buffer":0,"byteLength":288,"byteOffset":1296},{"buffer":0,"byteLength":384,"byteOffset":1584},{"buffer":0,"byteLength":288,"byteOffset":1968},{"buffer":0,"byteLength":192,"byteOffset":2256},{"buffer":0,"byteLength":144,"byteOffset":2448},{"buffer":0,"byteLength":288,"byteOffset":2592},{"buffer":0,"byteLength":384,"byteOffset":2880},{"buffer":0,"byteLength":288,"byteOffset":3264},{"buffer":0,"byteLength":192,"byteOffset":3552},{"buffer":0,"byteLength":144,"byteOffset":3744},{"buffer":0,"byteLength":288,"byteOffset":3888},{"buffer":0,"byteLength":384,"byteOffset":4176},{"buffer":0,"byteLength":288,"byteOffset":4560},{"buffer":0,"byteLength":192,"byteOffset":4848},{"buffer":0,"byteLength":144,"byteOffset":5040},{"buffer":0,"byteLength":288,"byteOffset":5184},{"buffer":0,"byteLength":384,"byteOffset":5472},{"buffer":0,"byteLength":288,"byteOffset":5856},{"buffer":0,"byteLength":192,"byteOffset":6144},{"buffer":0,"byteLength":144,"byteOffset":6336},{"buffer":0,"byteLength":288,"byteOffset":6480},{"buffer":0,"byteLength":384,"byteOffset":6768},{"buffer":0,"byteLength":288,"byteOffset":7152},{"buffer":0,"byteLength":192,"byteOffset":7440},{"buffer":0,"byteLength":144,"byteOffset":7632},{"buffer":0,"byteLength":288,"byteOffset":7776},{"buffer":0,"byteLength":384,"byteOffset":8064},{"buffer":0,"byteLength":288,"byteOffset":8448},{"buffer":0,"byteLength":192,"byteOffset":8736},{"buffer":0,"byteLength":144,"byteOffset":8928}],"buffers":[{"byteLength":9072,"uri":"court010.bin"}],"cameras":[{"perspective":{"yfov":1.30899691581726,"zfar":4000,"znear":0.0500000007450581},"type":"perspective"}],"extensions":{"OMI_collider":{"colliders":[{"size":[1,1,1],"type":"box"}]}},"extensionsUsed":["GODOT_single_root","OMI_collider","OMI_physics_body"],"materials":[{"extensions":{},"pbrMetallicRoughness":{"baseColorFactor":[0.99999988079071,0.99999988079071,0.99999988079071,1],"metallicFactor":0,"roughnessFactor":1}},{"extensions":{},"pbrMetallicRoughness":{"baseColorFactor":[0.99999988079071,0.99999988079071,0.99999988079071,1],"metallicFactor":0,"roughnessFactor":1}},{"extensions":{},"pbrMetallicRoughness":{"baseColorFactor":[0.99999988079071,0.99999988079071,0.99999988079071,1],"metallicFactor":0,"roughnessFactor":1}},{"extensions":{},"pbrMetallicRoughness":{"baseColorFactor":[0.99999988079071,0.99999988079071,0.99999988079071,1],"metallicFactor":0,"roughnessFactor":1}},{"extensions":{},"pbrMetallicRoughness":{"baseColorFactor":[0.99999988079071,0.99999988079071,0.99999988079071,1],"metallicFactor":0,"roughnessFactor":1}},{"extensions":{},"pbrMetallicRoughness":{"baseColorFactor":[0.99999988079071,0.99999988079071,0.99999988079071,1],"metallicFactor":0,"roughnessFactor":1}},{"extensions":{},"pbrMetallicRoughness":{"baseColorFactor":[0.99999988079071,0.99999988079071,0.99999988079071,1],"metallicFactor":0,"roughnessFactor":1}}],"meshes":[{"extras":{"targetNames":[]},"primitives":[{"attributes":{"NORMAL":2,"POSITION":0,"TANGENT":1,"TEXCOORD_0":3},"indices":4,"material":0,"mode":4}]},{"extras":{"targetNames":[]},"primitives":[{"attributes":{"NORMAL":7,"POSITION":5,"TANGENT":6,"TEXCOORD_0":8},"indices":9,"material":1,"mode":4}]},{"extras":{"targetNames":[]},"primitives":[{"attributes":{"NORMAL":12,"POSITION":10,"TANGENT":11,"TEXCOORD_0":13},"indices":14,"material":2,"mode":4}]},{"extras":{"targetNames":[]},"primitives":[{"attributes":{"NORMAL":17,"POSITION":15,"TANGENT":16,"TEXCOORD_0":18},"indices":19,"material":3,"mode":4}]},{"extras":{"targetNames":[]},"primitives":[{"attributes":{"NORMAL":22,"POSITION":20,"TANGENT":21,"TEXCOORD_0":23},"indices":24,"material":4,"mode":4}]},{"extras":{"targetNames":[]},"primitives":[{"attributes":{"NORMAL":27,"POSITION":25,"TANGENT":26,"TEXCOORD_0":28},"indices":29,"material":5,"mode":4}]},{"extras":{"targetNames":[]},"primitives":[{"attributes":{"NORMAL":32,"POSITION":30,"TANGENT":31,"TEXCOORD_0":33},"indices":34,"material":6,"mode":4}]}],"nodes":[{"children":[1,23],"extensions":{},"name":"Main"},{"children":[2,5,8,11,14,20],"extensions":{},"name":"Environment"},{"children":[3,4],"extensions":{"OMI_physics_body":{"type":"static"}},"name":"Floor","scale":[32,0.25,32]},{"extensions":{},"mesh":0,"name":"MeshInstance3D"},{"extensions":{"OMI_collider":{"collider":0}},"name":"CollisionShape3D"},{"children":[6,7],"extensions":{"OMI_physics_body":{"type":"static"}},"name":"WallXMinus","scale":[1,6,32],"translation":[-9,3,0]},{"extensions":{},"mesh":1,"name":"MeshInstance3D2"},{"extensions":{"OMI_collider":{"collider":0}},"name":"CollisionShape3D2"},{"children":[9,10],"extensions":{"OMI_physics_body":{"type":"static"}},"name":"WallZMinus","scale":[32,6,1],"translation":[0,3,-9]},{"extensions":{},"mesh":2,"name":"MeshInstance3D3"},{"extensions":{"OMI_collider":{"collider":0}},"name":"CollisionShape3D3"},{"children":[12,13],"extensions":{"OMI_physics_body":{"type":"static"}},"name":"WallXPlus","scale":[1,6,32],"translation":[9,3,0]},{"extensions":{},"mesh":3,"name":"MeshInstance3D4"},{"extensions":{"OMI_collider":{"collider":0}},"name":"CollisionShape3D4"},{"children":[15,16,17],"extensions":{"OMI_physics_body":{"type":"static"}},"name":"Throne","scale":[2.82999992370605,1.41499996185303,2.82999992370605],"translation":[0,0.331308007240295,-6.70065021514893]},{"extensions":{},"mesh":4,"name":"MeshInstance3D5"},{"extensions":{"OMI_collider":{"collider":0}},"name":"CollisionShape3D5"},{"children":[18,19],"extensions":{"OMI_physics_body":{"type":"static"}},"name":"ThroneBack","scale":[0.75,2,0.25],"translation":[0,1.5,-0.27113500237465]},{"extensions":{},"mesh":5,"name":"MeshInstance3D6"},{"extensions":{"OMI_collider":{"collider":0}},"name":"CollisionShape3D6"},{"children":[21,22],"extensions":{"OMI_physics_body":{"type":"static"}},"name":"HumanSizeReference","scale":[0.639999985694885,1.75999999046326,0.319999992847443],"translation":[0,1,0]},{"extensions":{},"mesh":6,"name":"MeshInstance3D7"},{"extensions":{"OMI_collider":{"collider":0}},"name":"CollisionShape3D7"},{"camera":0,"extensions":{},"name":"Camera3D","rotation":[-0.49999994039536,0,0,0.866025447845459],"translation":[0,8.77999973297119,4.5]}],"scene":0,"scenes":[{"nodes":[0]}]}